<svg width="39" height="25" viewBox="0 0 39 25" fill="none" xmlns="http://www.w3.org/2000/svg">
<rect x="17.9971" y="0.362305" width="8.39844" height="1.19978" fill="#068940"/>
<rect x="15.5967" y="1.5625" width="3.59933" height="1.19978" fill="#068940"/>
<rect x="19.1963" y="1.5625" width="3.59933" height="1.19978" fill="#4BEA69"/>
<rect x="22.7959" y="1.5625" width="4.79911" height="1.19978" fill="#068940"/>
<rect x="13.1973" y="2.7627" width="5.99888" height="1.19978" fill="#068940"/>
<rect x="19.1963" y="2.7627" width="3.59933" height="1.19978" fill="#4BEA69"/>
<rect x="22.7959" y="2.7627" width="1.19978" height="1.19978" fill="#068940"/>
<rect x="23.9951" y="2.7627" width="2.39955" height="1.19978" fill="#4BEA69"/>
<rect x="26.3955" y="2.7627" width="2.39955" height="1.19978" fill="#068940"/>
<rect x="10.7979" y="3.96191" width="4.79911" height="1.19978" fill="#068940"/>
<rect x="15.5967" y="3.96191" width="1.19978" height="1.19978" fill="#4BEA69"/>
<rect x="16.7969" y="3.96191" width="2.39955" height="1.19978" fill="#068940"/>
<rect x="19.1963" y="3.96191" width="3.59933" height="1.19978" fill="#4BEA69"/>
<rect x="22.7959" y="3.96191" width="1.19978" height="1.19978" fill="#068940"/>
<rect x="23.9951" y="3.96191" width="2.39955" height="1.19978" fill="#4BEA69"/>
<rect x="26.3955" y="3.96191" width="2.39955" height="1.19978" fill="#068940"/>
<rect x="9.59863" y="5.16211" width="19.1964" height="1.19978" fill="#068940"/>
<rect x="10.7979" y="6.36133" width="16.7969" height="1.19978" fill="#068940"/>
<rect x="29.9941" y="6.36133" width="3.59933" height="1.19978" fill="#068940"/>
<rect x="15.5967" y="7.56152" width="9.59821" height="1.19978" fill="#068940"/>
<rect x="28.7949" y="7.56152" width="2.39955" height="1.19978" fill="#068940"/>
<rect x="31.1943" y="7.56152" width="1.19978" height="1.19978" fill="#4BEA69"/>
<rect x="32.3936" y="7.56152" width="2.39955" height="1.19978" fill="#068940"/>
<rect x="4.79883" y="8.76074" width="8.39844" height="1.19978" fill="#068940"/>
<rect x="20.3965" y="8.76074" width="2.39955" height="1.19978" fill="#B2958D"/>
<rect x="26.3955" y="8.76074" width="9.59821" height="1.19978" fill="#068940"/>
<rect x="3.59961" y="9.96094" width="2.39955" height="1.19978" fill="#068940"/>
<rect x="5.99902" y="9.96094" width="2.39955" height="1.19978" fill="#4BEA69"/>
<rect x="8.39844" y="9.96094" width="7.19866" height="1.19978" fill="#068940"/>
<rect x="20.3965" y="9.96094" width="3.59933" height="1.19978" fill="#B2958D"/>
<rect x="23.9951" y="9.96094" width="7.19866" height="1.19978" fill="#068940"/>
<rect x="31.1943" y="9.96094" width="2.39955" height="1.19978" fill="#4BEA69"/>
<rect x="33.5938" y="9.96094" width="2.39955" height="1.19978" fill="#068940"/>
<rect x="3.59961" y="11.1611" width="2.39955" height="1.19978" fill="#068940"/>
<rect x="5.99902" y="11.1611" width="2.39955" height="1.19978" fill="#4BEA69"/>
<rect x="8.39844" y="11.1611" width="1.19978" height="1.19978" fill="#068940"/>
<rect x="9.59863" y="11.1611" width="1.19978" height="1.19978" fill="#4BEA69"/>
<rect x="10.7979" y="11.1611" width="5.99888" height="1.19978" fill="#068940"/>
<rect x="21.5957" y="11.1611" width="1.19978" height="1.19978" fill="#B2958D"/>
<rect x="22.7959" y="11.1611" width="8.39844" height="1.19978" fill="#068940"/>
<rect x="31.1943" y="11.1611" width="2.39955" height="1.19978" fill="#4BEA69"/>
<rect x="33.5938" y="11.1611" width="2.39955" height="1.19978" fill="#068940"/>
<rect x="3.59961" y="12.3604" width="13.1975" height="1.19978" fill="#068940"/>
<rect x="21.5957" y="12.3604" width="3.59933" height="1.19978" fill="#B2958D"/>
<rect x="25.1953" y="12.3604" width="9.59821" height="1.19978" fill="#068940"/>
<rect x="3.59961" y="13.5605" width="13.1975" height="1.19978" fill="#068940"/>
<rect x="20.3965" y="13.5605" width="10.798" height="1.19978" fill="#B2958D"/>
<rect x="4.79883" y="14.7598" width="9.59821" height="1.19978" fill="#068940"/>
<rect x="14.3975" y="14.7598" width="9.59821" height="1.19978" fill="#B2958D"/>
<rect x="5.99902" y="15.96" width="3.59933" height="1.19978" fill="#068940"/>
<rect x="9.59863" y="15.96" width="4.79911" height="1.19978" fill="#B2958D"/>
<rect x="17.9971" y="15.96" width="4.79911" height="1.19978" fill="#B2958D"/>
<rect x="15.5967" y="17.1592" width="7.19866" height="1.19978" fill="#B2958D"/>
<rect x="14.3975" y="18.3594" width="9.59821" height="1.19978" fill="#B2958D"/>
<rect x="8.39844" y="19.5596" width="21.596" height="1.19978" fill="#962236"/>
<rect x="8.39844" y="20.7588" width="11.9978" height="1.19978" fill="#962236"/>
<rect x="20.3965" y="20.7588" width="9.59821" height="1.19978" fill="#1F1D29"/>
<rect x="8.39844" y="21.959" width="21.596" height="1.19978" fill="#962236"/>
<rect x="10.7979" y="23.1582" width="16.7969" height="1.19978" fill="#962236"/>
</svg>
