<svg width="1728" height="433" viewBox="0 0 1728 433" fill="none" xmlns="http://www.w3.org/2000/svg"> <g clip-path="url(#clip0_1993_24088)"> <path fill-rule="evenodd" clip-rule="evenodd" d="M1481.46 175.446H1490.67V193.869H1499.88V203.081H1490.67H1481.46H1472.25V193.869V184.658H1481.46V175.446Z" fill="#0B5027"/> <path fill-rule="evenodd" clip-rule="evenodd" d="M1665.69 175.446H1656.48V184.658H1647.26V193.869H1638.05V203.081H1647.26V212.292H1638.05V221.503L1628.84 221.503V230.715H1693.32V221.503L1684.11 221.503V212.292H1674.9V203.081H1684.11V193.869H1674.9V184.658H1665.69V175.446Z" fill="#068940"/> <path d="M514.262 792.61H394.514V783.399H357.668V774.188H330.034V764.976H311.611V755.765H293.189V746.553H283.977V737.342H265.554V728.131H256.343V718.919H237.92V709.708H228.709V700.496H219.497V691.285H210.286V672.862H201.074V663.651H191.863V645.228H182.652V636.016H173.44V617.594H164.229V599.171H155.017V571.537H145.806V534.691H136.595V414.943H145.806V378.097H155.017V350.463H164.229V332.04H173.44V313.617H182.652V304.406H191.863V285.983H201.074V276.772H210.286V258.349H219.497V249.137H228.709V239.926H237.92V230.715H256.343V221.503H265.554V212.292H283.977V203.08H293.189V193.869H311.611V184.658H330.034V175.446H357.668V166.235H394.514V157.023H514.262V166.235H551.108V175.446H578.742V184.658H597.165V193.869H615.588V203.08H624.799V212.292H643.222V221.503H652.433V230.715H670.856V239.926H680.068V249.137H689.279V258.349H698.49V276.772H707.702V285.983H716.913V304.406H726.125V313.617H735.336V332.04H744.547V350.463H753.759V378.097H762.97V414.943H772.182V534.691H762.97V571.537H753.759V599.171H744.547V617.594H735.336V636.016H726.125V645.228H716.913V663.651H707.702V672.862H698.49V691.285H689.279V700.496H680.068V709.708H670.856V718.919H652.433V728.131H643.222V737.342H624.799V746.553H615.588V755.765H597.165V764.976H578.742V774.188H551.108V783.399H514.262V792.61Z" fill="#068940"/> <path d="M1895.97 599.171H1886.76V571.534L1877.55 571.533V553.114L1868.34 553.113V534.694H1859.12V516.267H1849.91V497.846H1840.7V488.636H1831.49V470.209H1822.28V451.789L1813.07 451.788V442.579H1803.86V433.368L1794.64 433.368V414.941H1785.43V405.731L1776.22 405.73V396.521L1767.01 396.52V387.311H1757.8V378.094H1748.59V368.884H1739.37V359.674H1730.16V350.464L1720.95 350.463V341.253H1711.74V332.036H1702.53V322.826H1693.32V313.616H1684.11V304.406L1665.69 304.405V295.196H1656.48V285.986H1647.27V276.769H1628.84V267.559H1610.42V258.349H1601.21V249.138H1582.78V239.928H1564.36V230.711H1545.93V221.501H1527.51V212.291H1499.88V203.081H1481.46V193.871H1453.83V184.661H1416.98V175.444H1370.92V166.234H1306.44V157.023H1195.9V166.234H1131.43V175.444H1085.37V184.661H1048.52V193.871H1020.89V203.081H1002.46V212.291H974.834V221.501H956.407V230.711H937.987V239.928H919.566V249.138H901.139V258.349H891.929V267.559H873.509V276.769H855.082V285.986H845.872V295.195H836.662V304.405H818.242V313.615H809.025V322.826H799.815V332.036H790.605V341.253H781.395V350.463H772.184V359.673H762.974V368.883H753.757V378.093H744.547V387.31H735.337V396.52H726.127V405.73H716.917V414.941H707.7V433.368H698.49V442.578H689.28V451.788H680.07V470.208H670.86V488.635H661.643V497.845H652.433V516.266H643.223V534.693H634.013V553.113H624.803V571.533H615.586V599.171H606.376V617.591H597.166V645.228H587.955V682.075H578.745V728.133H569.535V792.611H560.318V903.146L569.535 903.147V967.624L578.745 967.625V1013.68L587.955 1013.68V1050.53L597.166 1050.53V1078.17L606.376 1078.17V1096.59L615.586 1096.59V1124.22H624.803V1142.64L634.013 1142.64V1161.06H643.223V1179.49H652.433V1197.91H661.643V1207.12L670.86 1207.12V1225.55H680.07V1243.97H689.28V1253.18H698.49V1262.39H707.7V1280.82H716.917V1290.03L726.127 1290.03V1299.24L735.337 1299.24V1308.45H744.547V1317.66H753.757V1326.87L762.974 1326.87V1336.08L772.184 1336.08V1345.29L781.395 1345.29V1354.51H790.605V1363.72H799.815V1372.93H809.025V1382.14H818.242V1391.35L836.662 1391.35V1400.56H845.872V1409.77H855.082V1418.99H873.509V1428.2H891.929V1437.41H901.139V1446.62H919.566V1455.83H937.987V1465.05H956.407V1474.26H974.834V1483.47H1002.46V1492.68H1020.89V1501.89H1048.52V1511.1H1085.37V1520.31H1131.43V1529.52H1195.9V1538.73H1306.44V1529.52H1370.92V1520.31H1416.98V1511.1H1453.83V1501.89H1481.46V1492.68H1499.88V1483.47H1527.51V1474.26H1545.93V1465.05H1564.36V1455.83H1582.78V1446.62H1601.21V1437.41H1610.42V1428.2H1628.84V1418.99H1647.27V1409.77H1656.48V1400.56H1665.69V1391.35H1684.11V1382.14H1693.32V1372.93H1702.53V1363.72H1711.74V1354.51H1720.95V1345.29H1730.16V1336.08H1739.37V1326.87H1748.59V1317.66H1757.8V1308.45H1767.01V1299.24H1776.22V1290.03H1785.43V1280.82H1794.64V1262.39H1803.86V1253.18H1813.07V1243.97H1822.28V1225.55H1831.49V1207.12H1840.7V1197.91H1849.91V1179.49H1859.12V1161.06H1868.34V1142.64H1877.55V1124.22H1886.76V1096.59H1895.97V1078.17H1905.18V1050.53H1914.39V1013.68H1923.6V967.625H1932.81V903.147H1942.03V792.612H1932.81V728.134H1923.6V682.076H1914.39V645.229H1905.18V617.592H1895.97V599.171Z" fill="#068940"/> <path fill-rule="evenodd" clip-rule="evenodd" d="M1205.12 322.829H1195.91V332.041H1186.69V341.252H1177.48V350.463H1186.69V359.675H1177.48V368.886H1168.27V378.098H1232.75V368.886H1223.54V359.675H1214.33V350.463H1223.54V341.252H1214.33V332.041H1205.12V322.829Z" fill="#0B5027"/> <path fill-rule="evenodd" clip-rule="evenodd" d="M486.627 230.715H477.415V239.926H468.204V249.138L458.993 249.138V258.349H468.204V267.56H458.993V276.772H449.781V285.983H514.261V276.772H505.05V267.56H495.838V258.349H505.05V249.138L495.838 249.138V239.926H486.627V230.715Z" fill="#0B5027"/> <path fill-rule="evenodd" clip-rule="evenodd" d="M1278.81 350.463H1269.6V359.674L1260.39 359.674V368.886H1251.17V378.097H1260.39V387.309H1251.17V396.52H1241.96V405.731H1306.44V396.52H1297.23V387.309H1288.02V378.097H1297.23V368.886H1288.02V359.674L1278.81 359.674V350.463Z" fill="#0B5027"/> <path fill-rule="evenodd" clip-rule="evenodd" d="M1472.25 304.406H1463.04V313.618H1453.83V322.829H1444.61V332.04H1453.83V341.252L1444.61 341.252V350.463H1435.4V359.675H1499.88V350.463H1490.67V341.252L1481.46 341.252V332.04H1490.67V322.829H1481.46V313.618H1472.25V304.406Z" fill="#0B5027"/> <path d="M514.26 285.982H505.05V276.771H495.84V267.561H477.413V258.351H458.993V249.134H440.566V239.924H422.146V230.714H394.509V221.504H376.088V212.294H348.458V203.083H311.611V193.867H265.554V184.656H201.076V175.446H90.5347V184.656H26.0573V193.867H-20V203.083V461.002H1269.6H1278.81H1748.59V203.083H1711.74V212.294H1684.11V221.504H1665.69V230.714H1638.06V239.924H1619.63V249.134H1601.21V258.351H1582.79V267.561H1564.36V276.771H1555.15V285.982H1536.73V295.192H1518.3V304.409H1509.09V313.618H1499.88V322.828H1481.46L1481.46 322.829V332.038H1472.25V341.248H1463.04V350.459H1453.83V350.463H1453.82V359.674H1444.61V368.886L1435.41 368.886L1435.4 368.886V378.096H1426.2V378.097H1416.98L1416.98 387.306L1416.98 387.309H1398.56V396.52H1361.71V405.733H1315.65V396.522H1269.6V387.306H1232.75V378.096H1205.12V368.885H1186.69V359.675H1159.06V350.465L1159.06 350.46H1140.63L1140.64 341.255L1140.63 341.25H1122.21L1122.21 332.038H1113V322.83H1103.79V322.828H1094.58V313.62H1085.37V313.618H1076.16V304.408L1076.16 304.403H1057.74V295.197H1057.73V295.193H1039.31L1039.31 285.983L1011.67 285.982V276.772H993.253V267.562H965.622V258.352H928.775V249.135H882.718V239.925H818.24V230.715H707.699V239.925H643.221V249.135H597.164V258.352H560.317V267.562H532.687V276.772H514.26V285.982Z" fill="#8DD122"/> <path fill-rule="evenodd" clip-rule="evenodd" d="M136.594 120.178H127.382V129.389L118.171 129.389V138.601L108.959 138.601V147.812H118.171V157.023H108.959V166.235L99.748 166.235V175.446H164.228V166.235L155.016 166.235V157.023H145.805V147.812H155.016V138.601L145.805 138.601V129.389L136.594 129.389V120.178Z" fill="#068940"/> <path fill-rule="evenodd" clip-rule="evenodd" d="M228.707 129.389H219.496V138.6L210.284 138.6V147.811H201.073V157.023L210.284 157.023V166.234H201.073V175.446H191.861V184.657H256.341V175.446H247.13V166.234H237.918V157.023L247.13 157.023V147.811H237.918V138.6L228.707 138.6V129.389Z" fill="#068940"/> <path fill-rule="evenodd" clip-rule="evenodd" d="M753.758 175.446H744.546V184.658H735.335V193.869H726.124V203.081H735.335V212.292H726.124V221.503L716.912 221.503V230.715H781.392V221.503L772.181 221.503V212.292H762.969V203.081H772.181V193.869H762.969V184.658H753.758V175.446Z" fill="#068940"/> <path fill-rule="evenodd" clip-rule="evenodd" d="M855.084 184.657H845.872V193.869H836.661V203.08H827.45V212.291H836.661V221.503L827.45 221.503V230.714H818.238V239.926H882.718V230.714H873.507V221.503L864.295 221.503V212.291H873.507V203.08H864.295V193.869H855.084V184.657Z" fill="#068940"/> <path fill-rule="evenodd" clip-rule="evenodd" d="M376.091 138.601H385.302V157.023H394.514V166.235L385.302 166.235H376.091L366.879 166.235V157.023V147.812H376.091V138.601Z" fill="#0B5027"/> <path fill-rule="evenodd" clip-rule="evenodd" d="M1103.79 147.812H1113V166.234H1122.21V175.446H1113H1103.79H1094.58V166.234V157.023H1103.79V147.812Z" fill="#0B5027"/> <path fill-rule="evenodd" clip-rule="evenodd" d="M1186.69 138.601H1177.48V157.023H1168.27V166.235L1177.48 166.235H1186.69L1195.91 166.235V157.023V147.812H1186.69V138.601Z" fill="#0B5027"/> <path fill-rule="evenodd" clip-rule="evenodd" d="M477.415 129.389H486.626V138.6H495.837L495.837 147.811H505.049V157.023H495.837L486.626 157.023H477.415L468.203 157.023V147.811H477.415L477.415 129.389Z" fill="#0B5027"/> <path fill-rule="evenodd" clip-rule="evenodd" d="M458.993 129.389H449.782V147.811H440.57V157.023L449.782 157.023H458.993L468.205 157.023V147.811V138.6H458.993V129.389Z" fill="#0B5027"/> </g> <defs> <clipPath id="clip0_1993_24088"> <rect width="1768.59" height="460.57" fill="white" transform="translate(-20 0.429688)"/> </clipPath> </defs> </svg>