<svg width="95" height="37" viewBox="0 0 95 37" fill="none" xmlns="http://www.w3.org/2000/svg">
  <path d="M53.4373 0.5H17.8125V6.43747H53.4373V0.5Z" fill="#31d878"/>
  <path d="M94.9998 0.5H59.375V6.43747H94.9998V0.5Z" fill="#31d878"/>
  <path d="M23.75 6.4375H17.8125V12.375H23.75V6.4375Z" fill="#31d878"/>
  <path d="M35.6249 6.4375H23.75V12.375H35.6249V6.4375Z" fill="white"/>
  <path d="M47.4999 6.4375H35.625V12.375H47.4999V6.4375Z" fill="black"/>
  <path d="M53.4355 6.4375H47.498V12.375H53.4355V6.4375Z" fill="#31d878"/>
  <path d="M65.3125 6.4375H59.375V12.375H65.3125V6.4375Z" fill="#31d878"/>
  <path d="M77.1855 6.4375H65.3105V12.375H77.1855V6.4375Z" fill="white"/>
  <path d="M89.0624 6.4375H77.1875V12.375H89.0624V6.4375Z" fill="black"/>
  <path d="M95 6.4375H89.0625V12.375H95V6.4375Z" fill="#31d878"/>
  <path d="M23.7499 12.375H0V18.3125H23.7499V12.375Z" fill="#31d878"/>
  <path d="M35.6249 12.375H23.75V18.3125H35.6249V12.375Z" fill="white"/>
  <path d="M47.4999 12.375H35.625V18.3125H47.4999V12.375Z" fill="black"/>
  <path d="M65.3105 12.375H47.498V18.3125H65.3105V12.375Z" fill="#31d878"/>
  <path d="M77.1855 12.375H65.3105V18.3125H77.1855V12.375Z" fill="white"/>
  <path d="M89.0624 12.375H77.1875V18.3125H89.0624V12.375Z" fill="black"/>
  <path d="M95 12.375H89.0625V18.3125H95V12.375Z" fill="#31d878"/>
  <path d="M5.93747 18.3125H0V24.25H5.93747V18.3125Z" fill="#31d878"/>
  <path d="M23.75 18.3125H17.8125V24.25H23.75V18.3125Z" fill="#31d878"/>
  <path d="M35.6249 18.3125H23.75V24.25H35.6249V18.3125Z" fill="white"/>
  <path d="M47.4999 18.3125H35.625V24.25H47.4999V18.3125Z" fill="black"/>
  <path d="M53.4355 18.3125H47.498V24.25H53.4355V18.3125Z" fill="#31d878"/>
  <path d="M65.3125 18.3125H59.375V24.25H65.3125V18.3125Z" fill="#31d878"/>
  <path d="M77.1855 18.3125H65.3105V24.25H77.1855V18.3125Z" fill="white"/>
  <path d="M89.0624 18.3125H77.1875V24.25H89.0624V18.3125Z" fill="black"/>
  <path d="M95 18.3125H89.0625V24.25H95V18.3125Z" fill="#31d878"/>
  <path d="M5.93747 24.25H0V30.1875H5.93747V24.25Z" fill="#31d878"/>
  <path d="M23.75 24.25H17.8125V30.1875H23.75V24.25Z" fill="#31d878"/>
  <path d="M35.6249 24.25H23.75V30.1875H35.6249V24.25Z" fill="white"/>
  <path d="M47.4999 24.25H35.625V30.1875H47.4999V24.25Z" fill="black"/>
  <path d="M53.4355 24.25H47.498V30.1875H53.4355V24.25Z" fill="#31d878"/>
  <path d="M65.3125 24.25H59.375V30.1875H65.3125V24.25Z" fill="#31d878"/>
  <path d="M77.1855 24.25H65.3105V30.1875H77.1855V24.25Z" fill="white"/>
  <path d="M89.0624 24.25H77.1875V30.1875H89.0624V24.25Z" fill="black"/>
  <path d="M95 24.25H89.0625V30.1875H95V24.25Z" fill="#31d878"/>
  <path d="M53.4373 30.1875H17.8125V36.125H53.4373V30.1875Z" fill="#31d878"/>
  <path d="M94.9998 30.1875H59.375V36.125H94.9998V30.1875Z" fill="#31d878"/>
</svg>
